<?xml version="1.0" standalone="no"?>
<!DOCTYPE svg PUBLIC "-//W3C//DTD SVG 20010904//EN"
 "http://www.w3.org/TR/2001/REC-SVG-20010904/DTD/svg10.dtd">
<svg version="1.0" xmlns="http://www.w3.org/2000/svg"
 width="65.000000pt" height="82.000000pt" viewBox="0 0 65.000000 82.000000"
 preserveAspectRatio="xMidYMid meet">

<g transform="translate(0.000000,82.000000) scale(0.100000,-0.100000)"
fill="#000000" stroke="none">
<path d="M0 410 l0 -410 326 0 327 0 -8 68 c-4 37 -6 81 -6 97 1 17 4 171 7
343 l5 312 -325 0 -326 0 0 -410z m447 79 c-4 -160 -12 -299 -17 -309 -13 -24
-41 -33 -75 -24 -20 5 -24 10 -18 23 4 9 9 148 11 309 l3 292 51 0 51 0 -6
-291z m-303 -236 c11 -120 50 -180 137 -209 l44 -14 -65 5 c-140 11 -200 74
-208 217 l-5 78 45 0 45 0 7 -77z"/>
</g>
</svg>
